<mxfile host="app.diagrams.net" modified="2022-10-04T08:57:55.445Z" agent="5.0 (Windows NT 10.0; Win64; x64) AppleWebKit/537.36 (KHTML, like Gecko) Chrome/105.0.0.0 Safari/537.36 Edg/105.0.1343.53" version="20.4.0" etag="grOL38JNWSG18RoWQ4Rl" type="github">
  <diagram id="C5RBs43oDa-KdzZeNtuy" name="Page-1">
    <mxGraphModel dx="1421" dy="794" grid="1" gridSize="10" guides="1" tooltips="1" connect="1" arrows="1" fold="1" page="1" pageScale="1" pageWidth="827" pageHeight="1169" math="0" shadow="0">
      <root>
        <mxCell id="WIyWlLk6GJQsqaUBKTNV-0" />
        <mxCell id="WIyWlLk6GJQsqaUBKTNV-1" parent="WIyWlLk6GJQsqaUBKTNV-0" />
        <mxCell id="ePzKli17rahOWm1mjlvl-4" value="" style="edgeStyle=orthogonalEdgeStyle;rounded=0;orthogonalLoop=1;jettySize=auto;html=1;" edge="1" parent="WIyWlLk6GJQsqaUBKTNV-1" source="ePzKli17rahOWm1mjlvl-0" target="ePzKli17rahOWm1mjlvl-2">
          <mxGeometry relative="1" as="geometry" />
        </mxCell>
        <mxCell id="ePzKli17rahOWm1mjlvl-0" value="начало" style="ellipse;whiteSpace=wrap;html=1;" vertex="1" parent="WIyWlLk6GJQsqaUBKTNV-1">
          <mxGeometry x="354" y="60" width="120" height="80" as="geometry" />
        </mxCell>
        <mxCell id="ePzKli17rahOWm1mjlvl-1" value="конец" style="ellipse;whiteSpace=wrap;html=1;" vertex="1" parent="WIyWlLk6GJQsqaUBKTNV-1">
          <mxGeometry x="200" y="610" width="120" height="80" as="geometry" />
        </mxCell>
        <mxCell id="ePzKli17rahOWm1mjlvl-8" value="" style="edgeStyle=orthogonalEdgeStyle;rounded=0;orthogonalLoop=1;jettySize=auto;html=1;" edge="1" parent="WIyWlLk6GJQsqaUBKTNV-1" source="ePzKli17rahOWm1mjlvl-2" target="ePzKli17rahOWm1mjlvl-6">
          <mxGeometry relative="1" as="geometry" />
        </mxCell>
        <mxCell id="ePzKli17rahOWm1mjlvl-2" value="ввод:&lt;span style=&quot;font-size:11.0pt;line-height:&lt;br/&gt;107%;font-family:&amp;quot;Calibri&amp;quot;,sans-serif;mso-ascii-theme-font:minor-latin;&lt;br/&gt;mso-fareast-font-family:Calibri;mso-fareast-theme-font:minor-latin;mso-hansi-theme-font:&lt;br/&gt;minor-latin;mso-bidi-font-family:&amp;quot;Times New Roman&amp;quot;;mso-bidi-theme-font:minor-bidi;&lt;br/&gt;mso-ansi-language:EN-US;mso-fareast-language:EN-US;mso-bidi-language:AR-SA&quot; lang=&quot;EN-US&quot;&gt;r0,r1,I,n,ri&lt;/span&gt;" style="shape=parallelogram;perimeter=parallelogramPerimeter;whiteSpace=wrap;html=1;fixedSize=1;" vertex="1" parent="WIyWlLk6GJQsqaUBKTNV-1">
          <mxGeometry x="354" y="190" width="120" height="60" as="geometry" />
        </mxCell>
        <mxCell id="ePzKli17rahOWm1mjlvl-5" value="" style="edgeStyle=orthogonalEdgeStyle;rounded=0;orthogonalLoop=1;jettySize=auto;html=1;" edge="1" parent="WIyWlLk6GJQsqaUBKTNV-1" source="ePzKli17rahOWm1mjlvl-3" target="ePzKli17rahOWm1mjlvl-1">
          <mxGeometry relative="1" as="geometry" />
        </mxCell>
        <mxCell id="ePzKli17rahOWm1mjlvl-3" value="вывод:" style="shape=parallelogram;perimeter=parallelogramPerimeter;whiteSpace=wrap;html=1;fixedSize=1;" vertex="1" parent="WIyWlLk6GJQsqaUBKTNV-1">
          <mxGeometry x="190" y="430" width="120" height="60" as="geometry" />
        </mxCell>
        <mxCell id="ePzKli17rahOWm1mjlvl-9" value="" style="edgeStyle=orthogonalEdgeStyle;rounded=0;orthogonalLoop=1;jettySize=auto;html=1;" edge="1" parent="WIyWlLk6GJQsqaUBKTNV-1" source="ePzKli17rahOWm1mjlvl-6" target="ePzKli17rahOWm1mjlvl-7">
          <mxGeometry relative="1" as="geometry" />
        </mxCell>
        <mxCell id="ePzKli17rahOWm1mjlvl-15" value="" style="edgeStyle=orthogonalEdgeStyle;rounded=0;orthogonalLoop=1;jettySize=auto;html=1;" edge="1" parent="WIyWlLk6GJQsqaUBKTNV-1" source="ePzKli17rahOWm1mjlvl-6" target="ePzKli17rahOWm1mjlvl-3">
          <mxGeometry relative="1" as="geometry" />
        </mxCell>
        <mxCell id="ePzKli17rahOWm1mjlvl-6" value="покаi&amp;lt;n" style="shape=hexagon;perimeter=hexagonPerimeter2;whiteSpace=wrap;html=1;fixedSize=1;" vertex="1" parent="WIyWlLk6GJQsqaUBKTNV-1">
          <mxGeometry x="360" y="290" width="120" height="80" as="geometry" />
        </mxCell>
        <mxCell id="ePzKli17rahOWm1mjlvl-12" value="" style="edgeStyle=orthogonalEdgeStyle;rounded=0;orthogonalLoop=1;jettySize=auto;html=1;" edge="1" parent="WIyWlLk6GJQsqaUBKTNV-1" source="ePzKli17rahOWm1mjlvl-7" target="ePzKli17rahOWm1mjlvl-10">
          <mxGeometry relative="1" as="geometry" />
        </mxCell>
        <mxCell id="ePzKli17rahOWm1mjlvl-7" value="ri=r0+r1" style="rounded=0;whiteSpace=wrap;html=1;" vertex="1" parent="WIyWlLk6GJQsqaUBKTNV-1">
          <mxGeometry x="354" y="400" width="120" height="60" as="geometry" />
        </mxCell>
        <mxCell id="ePzKli17rahOWm1mjlvl-13" value="" style="edgeStyle=orthogonalEdgeStyle;rounded=0;orthogonalLoop=1;jettySize=auto;html=1;" edge="1" parent="WIyWlLk6GJQsqaUBKTNV-1" source="ePzKli17rahOWm1mjlvl-10" target="ePzKli17rahOWm1mjlvl-11">
          <mxGeometry relative="1" as="geometry" />
        </mxCell>
        <mxCell id="ePzKli17rahOWm1mjlvl-10" value="r0=ri" style="rounded=0;whiteSpace=wrap;html=1;" vertex="1" parent="WIyWlLk6GJQsqaUBKTNV-1">
          <mxGeometry x="540" y="400" width="120" height="60" as="geometry" />
        </mxCell>
        <mxCell id="ePzKli17rahOWm1mjlvl-14" value="" style="edgeStyle=orthogonalEdgeStyle;rounded=0;orthogonalLoop=1;jettySize=auto;html=1;" edge="1" parent="WIyWlLk6GJQsqaUBKTNV-1" source="ePzKli17rahOWm1mjlvl-11" target="ePzKli17rahOWm1mjlvl-6">
          <mxGeometry relative="1" as="geometry" />
        </mxCell>
        <mxCell id="ePzKli17rahOWm1mjlvl-11" value="i-1" style="rounded=0;whiteSpace=wrap;html=1;" vertex="1" parent="WIyWlLk6GJQsqaUBKTNV-1">
          <mxGeometry x="540" y="290" width="120" height="60" as="geometry" />
        </mxCell>
      </root>
    </mxGraphModel>
  </diagram>
</mxfile>
